<?xml version="1.0" encoding="UTF-8" standalone="no"?>
<svg
   version="1.1"
   id="svg2244"
   width="500"
   height="270.953"
   viewBox="0 0 500.00001 270.953"
   sodipodi:docname="1.svg"
   inkscape:version="1.4.2 (ebf0e940d0, 2025-05-08)"
   xmlns:inkscape="http://www.inkscape.org/namespaces/inkscape"
   xmlns:sodipodi="http://sodipodi.sourceforge.net/DTD/sodipodi-0.dtd"
   xmlns="http://www.w3.org/2000/svg"
   xmlns:svg="http://www.w3.org/2000/svg"
   xmlns:rdf="http://www.w3.org/1999/02/22-rdf-syntax-ns#"
   xmlns:cc="http://creativecommons.org/ns#"
   xmlns:dc="http://purl.org/dc/elements/1.1/">
  <metadata
     id="metadata8">
    <rdf:RDF>
      <cc:Work
         rdf:about="">
        <dc:format>image/svg+xml</dc:format>
        <dc:type
           rdf:resource="http://purl.org/dc/dcmitype/StillImage" />
      </cc:Work>
    </rdf:RDF>
  </metadata>
  <defs
     id="defs2248" />
  <sodipodi:namedview
     id="namedview2246"
     pagecolor="#ffffff"
     bordercolor="#000000"
     borderopacity="0.25"
     inkscape:showpageshadow="2"
     inkscape:pageopacity="0.0"
     inkscape:pagecheckerboard="0"
     inkscape:deskcolor="#d1d1d1"
     showgrid="false"
     inkscape:zoom="0.9983453"
     inkscape:cx="194.82237"
     inkscape:cy="104.6732"
     inkscape:window-width="1536"
     inkscape:window-height="792"
     inkscape:window-x="0"
     inkscape:window-y="0"
     inkscape:window-maximized="1"
     inkscape:current-layer="g2254"
     inkscape:document-rotation="0">
    <inkscape:page
       x="0"
       y="0"
       id="page2250"
       width="500"
       height="270.953"
       margin="0"
       bleed="0" />
  </sodipodi:namedview>
  <g
     id="g2252"
     inkscape:groupmode="layer"
     inkscape:label="Page 1"
     transform="matrix(1.3333333,0,0,1.3333333,0,1.0782152e-5)">
    <g
       id="g2254">
      <path
         d="m 350.59438,184.9836 -3.62586,-1.94118 -1.75055,-0.90921 -1.81243,-0.97009 -1.68468,-0.97507 -1.75055,-0.97109 -1.68369,-0.90821 -1.68468,-0.97009 -1.6218,-0.97109 -1.61782,-0.97508 -1.6218,-0.97009 -1.61781,-0.97108 -1.62181,-0.97409 -1.55494,-0.97108 -1.55194,-1.03696 -1.55593,-0.97109 -1.55494,-1.03695 -1.48907,-1.03696 -1.49306,-0.97109 -1.55593,-1.03696 -1.48907,-1.10282 -1.48907,-1.03696 -1.49405,-1.03297 -1.48907,-1.10382 -1.4222,-1.10283 -1.49006,-1.09983 -1.49306,-1.16571 -1.4232,-1.10282 -1.49306,-1.16571 -1.48906,-1.1657 -1.42719,-1.16571 -1.48907,-1.23257 2.39828,-0.45211 2.3314,-0.51798 2.39728,-0.64772 2.3354,-0.65072 2.33141,-0.77547 2.26853,-0.90921 2.26554,-0.90821 2.26853,-0.97009 2.20266,-1.09983 2.20266,-1.1697 2.20266,-1.1657 2.14078,-1.29445 2.06993,-1.29346 2.01203,-1.36131 2.00705,-1.42619 2.00804,-1.49007 3.7586,-3.11087 1.81642,-1.62181 1.74656,-1.61781 1.68369,-1.68368 1.68468,-1.75055 1.55593,-1.75056 1.55494,-1.81342 1.42719,-1.81243 1.42319,-1.81643 1.29745,-1.87929 1.23257,-1.8793 1.1657,-1.8793 1.09884,-1.94118 1.03696,-1.87929 0.90821,-1.94517 v -0.12875 l -0.19462,-0.19462 0.19462,-0.12874 0.90521,7.51619 0.58485,6.67485 0.32337,6.28363 0.12874,6.15587 -0.0629,6.48023 -0.26049,7.0601 -0.38624,8.03517 -0.51898,9.32862 14.90065,-5.11891 0.19462,-3.43424 0.0669,-4.59994 0.0619,-5.69977 -0.12874,-6.60898 -0.19462,-7.19283 -0.32336,-7.58207 -0.45211,-7.84055 -0.65172,-7.90244 -0.83735,-7.71081 -0.97508,-7.321571 -1.23157,-6.73673 -1.4232,-5.961257 -1.6218,-4.927294 -1.94218,-3.754604 -2.13978,-2.3354 -2.46016,-0.713594 -3.37235,0.261485 -3.3015,0.452109 -3.30649,0.584848 -3.30249,0.713595 -3.30549,0.84234 -3.23962,0.970089 -3.23962,1.165704 -3.17375,1.232572 -3.17674,1.36032 -3.11187,1.489067 -3.044,1.621805 -2.97913,1.684682 -2.98213,1.81243 -2.85038,1.879298 -2.84939,2.008044 -2.78751,2.073915 -2.65477,2.139785 -2.59289,2.202661 -2.5919,2.265537 -2.39827,2.3354 -2.39728,2.397274 -2.26554,2.46016 -2.13978,2.52602 -2.07392,2.52602 -2.00804,2.53002 -1.81243,2.65577 -1.75055,2.59189 -1.61782,2.65477 -1.49405,2.65976 -1.4222,2.65477 -1.23257,2.72064 -1.10283,2.65478 -1.87531,-2.33141 -1.94517,-2.39728 -1.87929,-2.39728 -1.94517,-2.39827 -1.94218,-2.45916 -1.94516,-2.46415 -1.94118,-2.46015 -1.94517,-2.46414 -1.94617,-2.52603 -2.00704,-2.52602 -2.00805,-2.5929 -2.00804,-2.526018 -2.00705,-2.592892 -2.07491,-2.65477 -2.07391,-2.658763 -2.13979,-2.654771 2.26853,-1.684681 2.39728,-1.750552 2.46415,-1.750551 2.5889,-1.81243 2.59289,-1.945168 2.72064,-1.941176 2.65477,-2.008045 2.72563,-2.012037 2.65477,-2.135792 2.72164,-2.136791 2.65477,-2.206653 2.53002,-2.331408 2.52602,-2.268531 2.46015,-2.398276 2.3354,-2.393285 2.20267,-2.530017 2.07391,-2.527022 1.94118,-2.587902 1.75055,-2.592892 1.61781,-2.721639 1.36132,-2.720641 1.1687,-2.787509 0.97108,-2.850385 0.7136,-2.915257 0.38624,-2.916256 0.19461,-2.983123 -0.12874,-3.044004 -0.45211,-3.11187 -0.77947,-3.10688 -1.1657,-3.173748 -1.42719,-3.243611 -1.8753,-3.3014965 -0.97409,-1.2944501 -1.29445,-1.1696959 -1.55593,-1.0988354 -1.75055,-0.9750793 -2.07392,-0.9042188 -2.26454,-0.7794646 -2.53101,-0.7135943 -2.65477,-0.5808558 -2.84939,-0.5189777 -3.045,-0.39023126 L 269.80053,0.45210132 266.49404,0.19460854 262.99693,0.06286805 259.43395,-8.086614e-6 255.8041,0.06286805 l -3.7576,0.06587025 -3.82446,0.25749277 -3.82048,0.26148492 -3.95321,0.38923321 -3.88734,0.4521095 -3.88635,0.5189776 -3.95321,0.584848 -3.88734,0.646726 -3.82447,0.7764705 -3.82446,0.8413427 -3.69173,0.8423407 -3.62985,0.9750792 -3.56298,1.0369573 -3.36837,1.0988355 -3.30249,1.1657037 -3.17674,1.2325721 -2.97914,1.297444 -1.94516,22.027609 2.00804,-1.617813 1.8793,-1.493059 1.81642,-1.361318 1.74656,-1.165704 1.68768,-1.098836 1.61781,-0.975079 1.55593,-0.904219 1.55594,-0.84234 2.97813,-1.427189 1.55594,-0.58385 1.48906,-0.581854 1.49306,-0.58385 1.61782,-0.518977 1.55593,-0.51798 1.68368,-0.514986 -0.77547,55.784114 -11.21291,2.074913 0.51898,10.688944 0.51798,9.652985 0.39023,8.682893 0.32336,7.77768 0.12875,6.99722 v 6.21875 l -0.2575,5.44228 -0.51797,4.86142 -0.77947,4.27658 -1.03396,3.69172 -1.42619,3.23962 -1.75055,2.85039 -2.20267,2.46414 -2.59289,2.20266 -3.10688,1.94118 -3.56697,1.81642 -3.62586,1.16571 -3.045,-0.0659 -2.46415,-1.22858 -1.94517,-2.20666 -1.48906,-3.10688 -1.09984,-4.01908 -0.71359,-4.79555 -0.32336,-5.50516 -0.12875,-6.15488 0.12875,-6.60898 0.25749,-7.12596 0.4561,-7.45432 0.51898,-7.77368 0.51798,-7.968304 0.51898,-8.10204 0.45211,-8.09705 -14.3198,2.850385 -0.0659,1.617813 -0.51897,4.471192 -0.77548,6.740722 -0.84234,8.421412 -0.90821,9.52424 -0.64672,10.17495 -0.32437,10.04222 0.19562,9.52424 -2.14078,2.26554 -2.07392,1.75055 -1.8793,1.29844 -1.81243,0.84134 -1.75055,0.45211 -1.55194,0.12875 -1.49306,-0.2565 -1.36032,-0.58484 -1.29445,-0.84234 -1.10383,-1.09984 -1.09883,-1.29844 -0.90821,-1.55494 -0.84234,-1.68468 -0.7136,-1.81243 -0.64672,-1.94517 -0.51898,-2.00804 -1.48907,-7.71181 -0.97508,-7.83956 -0.38524,-8.09705 0.0619,-8.4254 0.64772,-8.810643 1.10283,-9.200875 1.62181,-9.780734 2.13679,-10.432449 0.19461,-0.06687 0.32337,-0.128747 0.45211,-0.06587 0.65171,-0.128746 0.70961,-0.128747 0.84134,-0.128746 0.97508,-0.132739 1.03695,-0.128746 1.09984,-0.128746 1.1657,-0.127749 1.23158,-0.132738 1.29445,-0.06288 1.29844,-0.06587 1.36032,-0.06687 1.29445,-0.06188 h 1.36032 l 2.3354,-14.124178 -13.61019,2.915258 0.84633,-3.628852 0.90422,-3.435233 0.97508,-3.368365 0.97009,-3.239618 1.03696,-3.239619 1.09983,-3.239618 1.1657,-3.305489 1.1697,-3.435233 -17.62528,7.840555 -6.15588,23.067561 -14.25392,4.857431 -1.36032,11.084166 1.03696,-0.390231 0.97109,-0.323363 0.90821,-0.323363 0.84234,-0.261485 0.84134,-0.323363 0.77647,-0.195615 0.77947,-0.257493 0.77547,-0.260487 0.71359,-0.195614 0.7136,-0.190625 0.7096,-0.194616 0.71359,-0.195615 0.7136,-0.260487 0.77946,-0.195615 0.7096,-0.190624 0.77947,-0.261485 -0.26149,0.77647 -0.4521,2.073915 -0.64673,3.239619 -0.7136,4.342446 -0.77547,5.443277 -0.71359,6.346498 -0.65172,7.325565 -0.51399,8.16292 -0.90821,-2.13978 -1.1657,-2.07392 -1.42719,-2.06992 -1.55593,-2.01204 -1.74956,-2.008038 -2.00804,-1.941176 -2.06992,-1.945168 -2.26953,-1.946167 -2.33141,-1.8783 -2.53002,-1.879298 -2.59289,-1.813428 -2.654771,-1.812429 -2.72064,-1.816422 -2.783517,-1.74656 L 90.968804,80.731962 88.119417,78.98141 85.269032,77.296729 82.415653,75.613045 79.566266,73.928364 76.781751,72.24468 74.06111,70.622875 71.402348,69.005062 68.809455,67.383257 66.283431,65.765443 63.952024,64.209508 61.683492,62.653573 59.546702,61.098636 57.601533,59.542701 55.850982,57.987764 54.233168,56.498698 52.87185,54.942763 51.706146,53.453696 50.669189,51.769014 49.889724,50.151201 49.371745,48.529396 49.114252,46.974459 v -1.490065 l 0.194617,-1.493059 0.390231,-1.422198 0.513987,-1.29445 0.780463,-1.298442 0.908211,-1.165704 1.036957,-1.165704 1.165704,-1.036957 1.29445,-0.908211 1.360321,-0.842341 1.489066,-0.775472 1.555935,-0.647724 1.621806,-0.51798 1.617813,-0.456102 1.750551,-0.257492 1.683684,-0.195615 1.750551,-0.06587 1.684682,0.128746 1.683683,0.194617 1.621806,0.390231 1.617813,0.51798 1.555935,0.713594 1.423196,0.842341 1.360321,1.036957 1.231574,1.165704 1.165703,1.36032 0.97508,1.555935 0.84234,1.750552 17.750038,-7.777679 -1.813431,-3.110872 -2.073914,-2.850385 -2.202661,-2.591895 -2.460154,-2.265537 -2.526024,-2.012037 -2.721639,-1.746559 -2.786511,-1.489067 -2.916255,-1.231574 -2.983124,-0.971087 -3.044004,-0.713594 -3.107878,-0.456102 -3.110872,-0.256495 h -3.110872 l -3.110872,0.256495 -3.107878,0.456102 -2.982125,0.647724 -2.978134,0.904219 -2.916255,1.102827 -2.787509,1.232572 -2.654771,1.489067 -2.592892,1.684681 -2.331408,1.8783 -2.202661,2.074913 -2.011038,2.202661 -1.813428,2.397278 -1.621805,2.526024 -1.29445,2.721639 -1.098836,2.849387 -0.780463,3.048994 -0.517979,3.173748 -0.128747,3.305489 0.128747,3.431241 0.517979,2.787509 0.909209,2.786511 1.360321,2.655768 1.683683,2.591894 2.008045,2.592893 2.331407,2.460154 2.592892,2.464146 2.85338,2.397277 3.10688,2.397278 3.239618,2.398276 3.435233,2.330409 3.562982,2.26953 3.629849,2.331407 3.757598,2.264539 3.692726,2.3354 3.824467,2.269529 7.383455,4.662815 3.62985,2.334402 3.501103,2.394285 3.368365,2.39727 3.239618,2.46415 2.978134,2.52602 2.787509,2.52603 2.52602,2.65577 2.20267,2.65876 1.87929,2.72064 1.62181,2.85039 1.1657,2.85337 0.77647,3.04501 0.32337,3.045 -0.12875,3.17275 -0.51898,3.36836 -0.84134,3.049 -1.10383,2.84938 -1.29445,2.5929 -1.55493,2.39727 -1.81343,2.13679 -2.00705,1.94517 -2.203657,1.68468 -2.397278,1.48907 -2.526024,1.23158 -2.725631,1.09983 -2.849387,0.84234 -3.045002,0.71359 -3.110872,0.51798 -3.173748,0.26149 -3.368365,0.19062 -3.372357,-0.0619 -3.496113,-0.19561 -3.497111,-0.32336 -3.563979,-0.51798 -3.566974,-0.64773 -3.625858,-0.84234 -3.628851,-0.90821 -3.56398,-1.10283 -3.562981,-1.22858 -3.562982,-1.29744 -3.501103,-1.4232 -3.435233,-1.55593 -3.301497,-1.68368 -3.239618,-1.75056 -3.173748,-1.87929 -3.048994,-1.94517 L 0,161.01082 l 7.3874478,3.3025 7.1928312,2.91625 6.932344,2.5919 6.673854,2.20266 6.413366,1.94616 6.221744,1.61782 5.961258,1.36032 5.765642,1.03695 5.509148,0.77548 5.247663,0.51897 5.052048,0.26149 4.857431,0.0619 4.600937,-0.19063 4.342446,-0.4561 4.14783,-0.58085 3.94922,-0.84235 3.758596,-0.97507 3.501104,-1.09884 3.30549,-1.29844 3.10788,-1.48907 2.84938,-1.55593 2.72164,-1.68369 2.46315,-1.81343 2.26953,-1.8783 2.06992,-2.00804 1.8793,-2.07391 1.68768,-2.14079 1.42319,-2.13579 1.29844,-2.20266 1.09884,-2.26953 0.90921,-2.20266 0.71259,-2.26853 0.97109,3.17674 1.10383,2.91625 1.22758,2.78352 1.42719,2.46415 1.55494,2.20266 1.75055,1.94517 1.87929,1.55194 2.06993,1.1697 2.26953,0.77547 2.46314,0.32336 2.65577,-0.19462 2.84939,-0.64672 3.045,-1.16571 3.30549,-1.81342 3.49711,-2.39728 3.69572,-2.98213 1.23257,3.23962 1.36032,2.91526 1.48907,2.65577 1.55594,2.3344 1.61781,2.00804 1.68368,1.81343 1.81742,1.49306 1.81243,1.22758 1.8793,1.03696 2.00804,0.78046 1.94517,0.51798 2.07392,0.38624 2.00804,0.13274 2.07392,-0.0669 2.13579,-0.19461 2.07491,-0.45211 2.1358,-0.51898 2.07391,-0.7136 2.14078,-0.84134 2.06993,-1.03696 2.01203,-1.10382 2.00705,-1.16571 2.00804,-1.36032 1.94517,-1.36032 1.8793,-1.49006 1.81343,-1.55494 1.81243,-1.61781 1.68368,-1.62181 1.6228,-1.75055 1.48907,-1.68468 1.42619,-1.74656 1.36132,-1.75055 1.23157,15.61424 20.28005,-1.29445 -1.16969,-10.04222 -0.90422,-8.87751 -0.71359,-8.16392 -0.58485,-7.64494 -0.51399,-7.51619 -0.4561,-7.64494 -0.45211,-8.22979 -0.51898,-8.94338 2.97913,4.27657 6.08901,8.29566 3.04899,4.08196 3.10688,4.01609 3.11087,3.95321 3.11088,3.88635 3.17374,3.82446 3.17774,3.69173 3.17275,3.69273 3.17375,3.62885 3.17774,3.49711 3.17275,3.43523 3.11187,3.36837 3.17275,3.30548 3.11088,3.17375 3.17374,3.11087 3.04501,3.04501 3.11087,2.91625 3.045,2.85338 3.04899,2.78352 2.97814,2.65876 2.91625,2.5889 2.91626,2.46415 2.84938,2.39727 2.85039,2.26854 2.72064,2.20266 2.72164,2.07092 2.65876,1.94517 2.5889,1.87929 2.53002,1.75056 2.46015,1.61781 z m 0.39023,-98.614742 -3.30249,0.128746 -3.23962,0.390231 -3.17774,0.580856 -3.10688,0.908211 -3.11087,1.102828 -2.98213,1.29445 -2.91226,1.489067 -2.91626,1.621805 -2.72563,1.813428 -2.71665,1.879298 -2.59289,2.073914 -2.46415,2.139788 -2.39727,2.13679 -2.26554,2.26553 -2.20266,2.3344 -2.01104,2.26953 -1.94218,2.33141 -1.75055,2.33141 -1.6218,2.26853 -1.48907,2.20266 -1.36032,2.13679 -1.23157,2.07392 -1.03397,1.94517 -0.84533,1.81342 -0.7096,1.68369 -0.51898,1.55593 -0.32336,1.29745 -0.13274,1.1657 0.0669,0.97109 0.26048,0.64672 0.45311,0.45311 0.64673,0.19462 h 3.11087 l 3.045,-0.32337 3.045,-0.51897 2.97813,-0.84234 2.98213,-1.03696 2.91626,-1.29445 2.85038,-1.42619 2.84939,-1.61782 2.72563,-1.81742 2.65477,-1.8783 2.59289,-2.07092 2.52603,-2.13978 2.39727,-2.20266 2.33141,-2.26953 2.20266,-2.33141 2.07392,-2.39728 1.94517,-2.3314 1.87929,-2.3354 1.68468,-2.33141 1.55095,-2.20266 1.42719,-2.20266 1.29844,-2.135794 1.09884,-1.946167 0.9092,-1.8783 0.77548,-1.684681 0.58485,-1.555935 0.38623,-1.36032 0.19462,-1.165704 -0.0629,-0.908211 -0.19461,-0.709602 -0.45211,-0.456102 z m -68.16273,-56.953809 -0.45211,-1.684682 -0.58485,-1.489067 -0.77647,-1.427188 -0.97009,-1.231574 -1.10382,-1.165704 -1.29445,-1.036957 -1.36032,-0.904219 -1.48907,-0.842341 -1.6218,-0.713594 -1.75056,-0.584848 -1.74655,-0.51798 -1.8793,-0.452109 -1.94517,-0.390231 -1.94118,-0.323363 -2.01203,-0.195615 -2.07392,-0.194617 -2.00804,-0.06188 -2.07392,-0.06687 -2.00804,-0.06587 -2.07392,0.06587 -1.94117,0.06687 -1.94517,0.06188 -1.8793,0.132739 -1.81343,0.128746 -1.74955,0.128747 -1.61881,0.194616 -1.55494,0.128747 -1.42719,0.128746 -1.29445,0.194617 -1.1657,0.132738 -0.97408,0.128746 -0.84234,0.06188 0.26148,13.477451 0.12875,13.091212 0.12874,13.02135 0.26049,13.411581 1.4232,-0.452109 1.55593,-0.584848 1.68369,-0.709602 1.75055,-0.779465 1.81243,-0.842341 1.8793,-0.971087 1.94516,-1.102827 2.00805,-1.099834 4.14783,-2.464146 2.07491,-1.36032 2.13579,-1.360321 2.07392,-1.489066 2.07391,-1.427189 2.07492,-1.555935 2.00704,-1.489067 1.94218,-1.554937 1.8783,-1.617813 1.87929,-1.555935 1.75056,-1.621805 1.61781,-1.551943 1.55593,-1.621805 1.42719,-1.554937 1.29745,-1.555935 1.1657,-1.489067 1.03696,-1.489067 0.84234,-1.493059 0.7096,-1.357326 0.52197,-1.36032 0.32037,-1.298443 0.13274,-1.231574 -0.13274,-1.165703"
         style="fill:#ffdd00;fill-opacity:1;fill-rule:evenodd;stroke:none;stroke-width:0.998034"
         id="path2256" />
    </g>
  </g>
</svg>
